<svg xmlns="http://www.w3.org/2000/svg" width="65" height="48.718" viewBox="0 0 65 48.718">
  <g id="service-1" transform="translate(0.2 -14.456)">
    <path id="Trazado_193" data-name="Trazado 193" d="M142.335,25.819l-.529-2.855a.54.54,0,0,0-.564-.458l-2.714.141a.4.4,0,0,1-.388-.211,8.277,8.277,0,0,0-.846-1.3.433.433,0,0,1-.035-.458l1.233-2.432v-.035a.6.6,0,0,0-.176-.7l-2.4-1.656a.584.584,0,0,0-.7.07l-1.833,2.009a.386.386,0,0,1-.423.106,7.567,7.567,0,0,0-1.551-.317.484.484,0,0,1-.352-.282l-.846-2.608a.533.533,0,0,0-.634-.352L126.724,15a.54.54,0,0,0-.458.564l.141,2.714a.4.4,0,0,1-.211.388,8.277,8.277,0,0,0-1.3.846.433.433,0,0,1-.458.035L122,18.312a.6.6,0,0,0-.7.176l-1.656,2.4a.584.584,0,0,0,.07.7l.916.846a.554.554,0,0,0,.775-.035l.035-.035a.53.53,0,0,0,.141-.388.566.566,0,0,0-.176-.388l-.529-.493,1.057-1.515,1.973.987a1.5,1.5,0,0,0,1.656-.176,7.763,7.763,0,0,1,1.128-.74,1.631,1.631,0,0,0,.846-1.445l-.106-2.22,1.833-.352.7,2.114a1.568,1.568,0,0,0,1.3,1.057,9.064,9.064,0,0,1,1.339.282,1.579,1.579,0,0,0,1.621-.458l1.48-1.621,1.515,1.057-.987,1.973a1.5,1.5,0,0,0,.176,1.656,7.764,7.764,0,0,1,.74,1.128,1.631,1.631,0,0,0,1.445.846l2.22-.106.352,1.833-2.114.7A1.568,1.568,0,0,0,138,27.4a8.2,8.2,0,0,1-.282,1.339,1.579,1.579,0,0,0,.458,1.621l1.621,1.48-1.057,1.515-1.973-.987a1.5,1.5,0,0,0-1.656.176,6.373,6.373,0,0,1-1.022.67.448.448,0,0,0-.247.317.589.589,0,0,0,.035.423l.035.035a.567.567,0,0,0,.74.211,6.681,6.681,0,0,0,1.163-.775.433.433,0,0,1,.458-.035l2.432,1.233a.653.653,0,0,0,.247.07.514.514,0,0,0,.458-.247l1.656-2.4a.584.584,0,0,0-.07-.7l-2.009-1.833a.386.386,0,0,1-.106-.423,7.567,7.567,0,0,0,.317-1.551.484.484,0,0,1,.282-.352l2.608-.846C142.229,26.347,142.406,26.065,142.335,25.819Z" transform="translate(-77.551 0)" fill="#047f8c"/>
    <path id="Trazado_194" data-name="Trazado 194" d="M54.494,41H.575a.707.707,0,0,0-.7.7L-.2,79.659a.64.64,0,0,0,.211.493.7.7,0,0,0,.493.211H54.494a.707.707,0,0,0,.7-.7V41.7A.707.707,0,0,0,54.494,41ZM35.358,78.954V77.263L38,78.954Zm8.81-.035-.07.035H40.609c-.035-.035-.07-.07-.106-.07l-3.947-2.537H48.15Zm5.321.035H46.741l2.749-1.8Zm4.264,0H50.9V75.606a.707.707,0,0,0-.7-.7H34.653a.707.707,0,0,0-.7.7v3.348H1.174l.07-30.659H50.089a.7.7,0,0,0,0-1.41H1.245L1.28,42.41H53.789V78.954Z" transform="translate(0 -17.19)" fill="#047f8c"/>
    <path id="Trazado_195" data-name="Trazado 195" d="M9.5,50.11H22.081a.7.7,0,0,0,0-1.41H9.5a.7.7,0,0,0,0,1.41Z" transform="translate(-5.824 -22.176)" fill="#047f8c"/>
    <path id="Trazado_196" data-name="Trazado 196" d="M36.4,122.2H14.3a.7.7,0,0,0,0,1.41H36.366a.707.707,0,0,0,.7-.7A.678.678,0,0,0,36.4,122.2Z" transform="translate(-8.937 -69.774)" fill="#047f8c"/>
    <path id="Trazado_197" data-name="Trazado 197" d="M36.4,131.5H14.3a.7.7,0,0,0,0,1.41H36.366a.707.707,0,0,0,.7-.7A.678.678,0,0,0,36.4,131.5Z" transform="translate(-8.937 -75.797)" fill="#047f8c"/>
    <path id="Trazado_198" data-name="Trazado 198" d="M24.7,140.8H14.3a.7.7,0,1,0,0,1.41H24.7a.7.7,0,1,0,0-1.41Z" transform="translate(-8.937 -81.82)" fill="#047f8c"/>
    <path id="Trazado_199" data-name="Trazado 199" d="M112.876,108.4H97.4a.7.7,0,1,0,0,1.41H112.84a.707.707,0,0,0,.7-.7A.678.678,0,0,0,112.876,108.4Z" transform="translate(-62.752 -60.838)" fill="#047f8c"/>
    <path id="Trazado_200" data-name="Trazado 200" d="M97.4,119.11h10.607a.7.7,0,0,0,0-1.41H97.4a.7.7,0,0,0,0,1.41Z" transform="translate(-62.752 -66.86)" fill="#047f8c"/>
    <path id="Trazado_201" data-name="Trazado 201" d="M100.118,127H97.4a.7.7,0,0,0,0,1.41h2.714a.7.7,0,0,0,0-1.41Z" transform="translate(-62.752 -72.883)" fill="#047f8c"/>
    <path id="Trazado_202" data-name="Trazado 202" d="M114.818,127H112.1a.7.7,0,0,0,0,1.41h2.714a.707.707,0,0,0,.7-.7A.665.665,0,0,0,114.818,127Z" transform="translate(-72.271 -72.883)" fill="#047f8c"/>
    <path id="Trazado_203" data-name="Trazado 203" d="M129.618,127H126.9a.7.7,0,0,0,0,1.41h2.714a.7.7,0,1,0,0-1.41Z" transform="translate(-81.856 -72.883)" fill="#047f8c"/>
    <path id="Trazado_204" data-name="Trazado 204" d="M70,50.11h5.956a.7.7,0,1,0,0-1.41H70a.7.7,0,0,0,0,1.41Z" transform="translate(-45.003 -22.176)" fill="#047f8c"/>
    <path id="Trazado_205" data-name="Trazado 205" d="M97.1,50.11h5.956a.7.7,0,1,0,0-1.41H97.1a.707.707,0,0,0-.7.7A.731.731,0,0,0,97.1,50.11Z" transform="translate(-62.557 -22.176)" fill="#047f8c"/>
    <path id="Trazado_206" data-name="Trazado 206" d="M124.3,50.11h5.956a.7.7,0,1,0,0-1.41H124.3a.707.707,0,0,0-.7.7A.731.731,0,0,0,124.3,50.11Z" transform="translate(-80.172 -22.176)" fill="#047f8c"/>
    <path id="Trazado_207" data-name="Trazado 207" d="M36.4,68.1H14.3a.707.707,0,0,0-.7.7V84.276a.707.707,0,0,0,.7.7H36.4a.707.707,0,0,0,.7-.7V68.84A.715.715,0,0,0,36.4,68.1ZM16.455,83.571l7.224-4.9a.709.709,0,1,0-.811-1.163L15.01,82.831V70.355L34.251,83.571Zm19.241-.74L16.349,69.545H34.568l-7.542,5.11a.72.72,0,0,0,.423,1.3.71.71,0,0,0,.388-.106L35.7,70.532Z" transform="translate(-8.937 -34.74)" fill="#047f8c"/>
    <path id="Trazado_208" data-name="Trazado 208" d="M112.946,68.4H97.4a.707.707,0,0,0-.7.7v10.5a.707.707,0,0,0,.7.7h15.541a.707.707,0,0,0,.7-.7V69.1A.707.707,0,0,0,112.946,68.4ZM99.625,78.9l3.876-2.5a.714.714,0,0,0-.775-1.2l-4.581,3V70.8L110.8,78.937H99.625Zm12.616-.775-12.9-8.317H110.9l-4.229,2.749a.731.731,0,0,0-.211.987.692.692,0,0,0,.6.317.71.71,0,0,0,.388-.106l4.757-3.1v7.471Z" transform="translate(-62.752 -34.934)" fill="#047f8c"/>
    <path id="Trazado_209" data-name="Trazado 209" d="M147.872,42.443a.613.613,0,0,0,.388-.211,5.394,5.394,0,0,0,1.163-4.511,5.5,5.5,0,0,0-2.291-3.524,5.35,5.35,0,0,0-4.123-.881,5.252,5.252,0,0,0-2.009.811.576.576,0,0,0-.176.811l.035.035a.508.508,0,0,0,.388.247.7.7,0,0,0,.458-.07,4.013,4.013,0,0,1,1.551-.634,4.3,4.3,0,0,1,3.207.67,4.209,4.209,0,0,1,1.8,2.749,4.276,4.276,0,0,1-.916,3.524.564.564,0,0,0,.07.811l.035.035a.739.739,0,0,0,.388.141Z" transform="translate(-91.264 -12.148)" fill="#047f8c"/>
  </g>
</svg>
