<svg xmlns="http://www.w3.org/2000/svg" width="65" height="64.487" viewBox="0 0 65 64.487">
  <g id="service-4" transform="translate(-0.3 -1.341)">
    <path id="Trazado_230" data-name="Trazado 230" d="M65.328,1.4a.78.78,0,0,0-.854.178L1.289,64.19a.819.819,0,0,0-.178.854.7.7,0,0,0,.712.463l20.967.107a.606.606,0,0,0,.249.036.528.528,0,0,0,.249-.036l5.909.036c.071,0,.107.036.178.036h.178l35.205.142h0a.724.724,0,0,0,.534-.214.785.785,0,0,0,.214-.534l.285-62.9A.776.776,0,0,0,65.328,1.4ZM54.9,64.19V58.708a.783.783,0,1,0-1.566,0V64.19l-5.268-.036V61.948a.783.783,0,0,0-1.566,0v2.207l-4.806-.036V61.912a.783.783,0,0,0-1.566,0v2.171l-4.343-.036V58.673a.783.783,0,0,0-1.566,0v5.375l-4.165-.036V61.876a.783.783,0,0,0-1.566,0v2.136l-4.663.036v-2.1a.783.783,0,0,0-1.566,0v2.1l-4.343-.036v-5.3a.783.783,0,1,0-1.566,0v5.3L3.639,63.941,64.26,3.96l-.071,12.495H58.565a.783.783,0,0,0,0,1.566h5.624l-.036,5.268H61.768a.783.783,0,0,0,0,1.566h2.385l-.036,4.806H61.768a.783.783,0,0,0,0,1.566h2.349l-.036,4.343H58.529a.783.783,0,0,0,0,1.566h5.553L64.047,41.3H61.733a.783.783,0,0,0,0,1.566h2.278l-.036,4.806H61.7a.783.783,0,1,0,0,1.566h2.278l-.036,4.343H58.458a.783.783,0,1,0,0,1.566H63.9l-.036,9.291Z" transform="translate(-0.491 0)" fill="#0a4273"/>
    <path id="Trazado_231" data-name="Trazado 231" d="M107.538,90.9a7.938,7.938,0,1,0,7.938,7.938A7.945,7.945,0,0,0,107.538,90.9Zm0,14.31a6.372,6.372,0,1,1,6.372-6.372A6.388,6.388,0,0,1,107.538,105.21Z" transform="translate(-63.952 -57.679)" fill="#0a4273"/>
    <path id="Trazado_232" data-name="Trazado 232" d="M7.633,25.978a.8.8,0,0,0,.641-.356l1.709-2.634v28.3a.759.759,0,0,0,.57.748.451.451,0,0,0,.214.036.8.8,0,0,0,.641-.356l6.479-10.359h8.4a.783.783,0,1,0,0-1.566H17.458a.8.8,0,0,0-.641.356l-5.268,8.436V20.425a.77.77,0,0,0-.534-.748.744.744,0,0,0-.854.32l-2.919,4.45H2.436L10.8,10.066h5.233L14,13.163a.774.774,0,0,0,1.175,1c1.032-1.032,4.2-3.7,6.123-3.844,2.207-.142,17.371-.036,22,0l-2.848,4.912H25.36a11.7,11.7,0,0,0-5.055,2.029,8.948,8.948,0,0,0-4.2,7.4,11.237,11.237,0,0,0,2.6,7.725,7.218,7.218,0,0,0,4.2,2.563c.427.036,7.689,0,9.9,0a.783.783,0,0,0,0-1.566h0c-3.7,0-9.326.036-9.754,0a6,6,0,0,1-3.2-2.029,9.636,9.636,0,0,1-2.207-6.692A7.337,7.337,0,0,1,21.2,18.5a10.181,10.181,0,0,1,4.2-1.744h15.52a.763.763,0,0,0,.676-.392l3.7-6.443a.771.771,0,0,0,0-.783.763.763,0,0,0-.676-.392c-.854,0-20.789-.178-23.423,0a7.7,7.7,0,0,0-3.311,1.281l.214-.356a.773.773,0,0,0,.036-.783.843.843,0,0,0-.676-.392H10.338a.763.763,0,0,0-.676.392L.407,24.839a.771.771,0,0,0,0,.783.763.763,0,0,0,.676.392h6.55Z" transform="translate(0 -4.611)" fill="#0a4273"/>
    <path id="Trazado_233" data-name="Trazado 233" d="M65.761,48.266H82.456a6.38,6.38,0,0,1,1.21.107.782.782,0,0,0,.32-1.531,6.785,6.785,0,0,0-1.531-.142H65.761a4.338,4.338,0,0,0-2.848,1.21,2.817,2.817,0,0,0-.819,2.171c.107,2.527,1.317,3.631,4.058,3.7H78.042a.783.783,0,1,0,0-1.566H66.188c-2.136-.071-2.492-.712-2.563-2.243a1.393,1.393,0,0,1,.392-1.032A3.011,3.011,0,0,1,65.761,48.266Z" transform="translate(-39.796 -29.213)" fill="#0a4273"/>
    <path id="Trazado_234" data-name="Trazado 234" d="M20.326,137.7a.763.763,0,0,0-.676.392L16.8,142.9a.793.793,0,0,0,.249,1.068.718.718,0,0,0,.392.107.806.806,0,0,0,.676-.392l2.634-4.414h1.388a.783.783,0,1,0,0-1.566H20.326Z" transform="translate(-10.557 -87.82)" fill="#0a4273"/>
    <path id="Trazado_235" data-name="Trazado 235" d="M116.6,103.163a.768.768,0,0,0-1.032.356,5.918,5.918,0,0,1-2.421,2.6,11.094,11.094,0,0,1-4.343,1.317.794.794,0,0,0-.712.854.779.779,0,0,0,.783.712h.071a12.552,12.552,0,0,0,4.984-1.5,7.5,7.5,0,0,0,3.026-3.275A.8.8,0,0,0,116.6,103.163Z" transform="translate(-69.422 -65.528)" fill="#0a4273"/>
  </g>
</svg>
