<svg xmlns="http://www.w3.org/2000/svg" width="65" height="48.079" viewBox="0 0 65 48.079">
  <g id="service-2" transform="translate(0 -18.572)">
    <path id="Trazado_210" data-name="Trazado 210" d="M28.963,86a6.928,6.928,0,1,0,6.892,6.928A6.947,6.947,0,0,0,28.963,86Zm0,11.7a4.807,4.807,0,1,1,4.807-4.807A4.812,4.812,0,0,1,28.963,97.7Z" transform="translate(-14.224 -43.595)" fill="#0a4273"/>
    <path id="Trazado_211" data-name="Trazado 211" d="M24.459,83.835c-.035-.035-.035-.071,0-.141a8.065,8.065,0,0,0,.742-1.8c0-.035.035-.071.106-.071l3.216-.424a1.067,1.067,0,0,0,.919-1.06V77.614a1.1,1.1,0,0,0-.353-1.626l-.318-.106h-.106a.13.13,0,0,1-.106-.035l-3.216-.424c-.035,0-.071-.035-.106-.071a11.381,11.381,0,0,0-.742-1.8c-.035-.035,0-.071,0-.106l1.944-2.58a1.08,1.08,0,0,0-.106-1.414l-2.4-2.4a1.08,1.08,0,0,0-1.414-.106l-2.58,1.944a.066.066,0,0,1-.106,0,8.065,8.065,0,0,0-1.8-.742c-.035,0-.071-.035-.071-.106l-.424-3.216a1.067,1.067,0,0,0-1.06-.919H13.042a1.067,1.067,0,0,0-1.06.919l-.424,3.216c0,.035-.035.071-.071.106a11.382,11.382,0,0,0-1.8.742c-.035.035-.071,0-.106,0L7,66.94a1.08,1.08,0,0,0-1.414.106l-2.4,2.4a1.08,1.08,0,0,0-.106,1.414l1.944,2.58a.066.066,0,0,1,0,.106,8.065,8.065,0,0,0-.742,1.8c0,.035-.035.071-.106.071l-3.216.424A1.1,1.1,0,0,0,0,76.942v3.428a1.067,1.067,0,0,0,.919,1.06l3.216.424c.035,0,.071.035.106.071a11.381,11.381,0,0,0,.742,1.8c.035.035,0,.106,0,.141L3.04,86.45a1.08,1.08,0,0,0,.106,1.414l2.4,2.4a1.08,1.08,0,0,0,1.414.106l2.58-1.944c.035-.035.071-.035.141,0a8.065,8.065,0,0,0,1.8.742c.035,0,.071.035.071.106l.424,3.216a1.067,1.067,0,0,0,1.06.919h3.428a1.067,1.067,0,0,0,1.06-.919l.424-3.216c0-.035.035-.071.071-.106a11.381,11.381,0,0,0,1.8-.742c.035-.035.071,0,.106,0l2.58,1.944a1.08,1.08,0,0,0,1.414-.106l2.4-2.4a1.08,1.08,0,0,0,.106-1.414ZM23.08,88.076l-1.838-1.414a2.278,2.278,0,0,0-2.4-.212,7.38,7.38,0,0,1-1.449.6,2.257,2.257,0,0,0-1.555,1.838l-.318,2.3H13.961l-.318-2.3a2.257,2.257,0,0,0-1.555-1.838,7.379,7.379,0,0,1-1.449-.6,2.272,2.272,0,0,0-2.4.212L6.4,88.076l-1.1-1.1,1.414-1.838a2.278,2.278,0,0,0,.212-2.4,7.379,7.379,0,0,1-.6-1.449,2.257,2.257,0,0,0-1.838-1.555l-2.3-.318V77.861l2.3-.318a2.257,2.257,0,0,0,1.838-1.555,7.379,7.379,0,0,1,.6-1.449,2.272,2.272,0,0,0-.212-2.4L5.3,70.3l1.1-1.1,1.838,1.414a2.278,2.278,0,0,0,2.4.212,7.379,7.379,0,0,1,1.449-.6,2.257,2.257,0,0,0,1.555-1.838l.318-2.3h1.555l.318,2.3a2.257,2.257,0,0,0,1.555,1.838,7.379,7.379,0,0,1,1.449.6,2.272,2.272,0,0,0,2.4-.212L23.08,69.2l1.1,1.1-1.414,1.838a2.278,2.278,0,0,0-.212,2.4,7.38,7.38,0,0,1,.6,1.449,2.257,2.257,0,0,0,1.838,1.555l2.3.318v1.555l-2.3.318a2.257,2.257,0,0,0-1.838,1.555,7.379,7.379,0,0,1-.6,1.449,2.272,2.272,0,0,0,.212,2.4l1.414,1.838Z" transform="translate(0 -29.307)" fill="#0a4273"/>
    <path id="Trazado_212" data-name="Trazado 212" d="M63.159,41.885a4.2,4.2,0,0,0,2.545.884,2.015,2.015,0,0,0,.459-.035h0a4.085,4.085,0,0,0,2.722-1.52,3.983,3.983,0,0,0,.848-3,4.085,4.085,0,0,0-1.52-2.722,4.025,4.025,0,0,0-3-.848,4.085,4.085,0,0,0-2.722,1.52,4.08,4.08,0,0,0,.672,5.726Zm.813-4.595a2.162,2.162,0,0,1,1.484-.813H65.7a2.271,2.271,0,0,1,1.378.495,2.162,2.162,0,0,1,.813,1.485,2.431,2.431,0,0,1-.495,1.591,2.162,2.162,0,0,1-1.485.813A2.259,2.259,0,0,1,64.29,40.4a2.162,2.162,0,0,1-.813-1.485A2.466,2.466,0,0,1,63.972,37.29Z" transform="translate(-39.832 -10.367)" fill="#0a4273"/>
    <path id="Trazado_213" data-name="Trazado 213" d="M45.894,30.493a1.014,1.014,0,0,0,.919.848l1.944.035a7.592,7.592,0,0,0,.495.919l-.99,1.7a.975.975,0,0,0,.212,1.237l1.7,1.343a.92.92,0,0,0,1.237-.071l1.414-1.343c.318.106.672.212.99.283l.495,1.873a.945.945,0,0,0,.919.707h.106l2.156-.247a1.014,1.014,0,0,0,.848-.919l.035-1.944a7.593,7.593,0,0,0,.919-.495l1.7.99a.975.975,0,0,0,1.237-.212l1.343-1.7a.92.92,0,0,0-.071-1.237l-1.343-1.414c.106-.318.212-.672.283-.99l1.873-.495a.931.931,0,0,0,.707-1.025l-.177-1.661a.754.754,0,0,0,.106-.424.95.95,0,0,0-.954-.954h-.106l-1.944-.035a7.593,7.593,0,0,0-.495-.919l.99-1.7a.975.975,0,0,0-.212-1.237l-1.7-1.343a.92.92,0,0,0-1.237.071L57.876,21.48c-.318-.106-.672-.212-.99-.283l-.495-1.909a.931.931,0,0,0-1.025-.707l-2.156.247a1.014,1.014,0,0,0-.848.919l-.035,1.944a7.593,7.593,0,0,0-.919.495l-1.7-.99a.975.975,0,0,0-1.237.212l-1.343,1.7a1.006,1.006,0,0,0,.071,1.272l1.343,1.414c-.106.318-.212.672-.283.99l-1.873.495a.931.931,0,0,0-.707,1.025Zm2.934-1.873a1.669,1.669,0,0,0,1.237-1.343,8.851,8.851,0,0,1,.247-.919,1.709,1.709,0,0,0-.353-1.8l-.813-.884.318-.424,1.06.636a1.729,1.729,0,0,0,1.838-.071,4.8,4.8,0,0,1,.848-.459,1.761,1.761,0,0,0,1.025-1.52l.035-1.237.53-.071.318,1.2a1.669,1.669,0,0,0,1.343,1.237,6.975,6.975,0,0,1,.919.247,1.709,1.709,0,0,0,1.8-.353l.884-.848.424.318-.636,1.06a1.729,1.729,0,0,0,.071,1.838,4.8,4.8,0,0,1,.459.848,1.761,1.761,0,0,0,1.52,1.025l1.237.035.071.53-1.2.318a1.669,1.669,0,0,0-1.237,1.343,6.974,6.974,0,0,1-.247.919,1.709,1.709,0,0,0,.353,1.8l.848.884-.318.424-1.06-.636a1.659,1.659,0,0,0-1.838.071,4.8,4.8,0,0,1-.848.459,1.761,1.761,0,0,0-1.025,1.52L56.6,36.007l-.6.035-.318-1.2A1.669,1.669,0,0,0,54.342,33.6a8.853,8.853,0,0,1-.919-.247,1.119,1.119,0,0,0-.566-.141,1.792,1.792,0,0,0-1.166.459l-.884.848-.424-.318.636-1.06a1.729,1.729,0,0,0-.071-1.838,4.8,4.8,0,0,1-.459-.848,1.761,1.761,0,0,0-1.52-1.025L47.732,29.4l-.071-.53Z" transform="translate(-29.529 0)" fill="#0a4273"/>
    <path id="Trazado_214" data-name="Trazado 214" d="M122.988,81.3a.035.035,0,0,0-.035-.035l-.919-.919L109.8,68.119l.919-3.04a2.444,2.444,0,0,0-.566-2.333L103.9,56.49a2.444,2.444,0,0,0-2.333-.566l-3.641,1.131a1.1,1.1,0,0,0-.742.778,1.031,1.031,0,0,0,.283,1.025l3.393,3.393-.778,2.3-2.3.778L94.359,61.9a1.011,1.011,0,0,0-1.025-.283,1.1,1.1,0,0,0-.778.742L91.425,66a2.465,2.465,0,0,0,.566,2.333l6.256,6.256a2.444,2.444,0,0,0,2.333.566l3.04-.919,12.3,12.3.035.035.707.636a4.5,4.5,0,0,0,3.04,1.343,4.344,4.344,0,0,0,4.347-4.347A4.57,4.57,0,0,0,122.988,81.3Zm-3.252,5.09a2.448,2.448,0,0,1-1.555-.742l-.035-.035-.707-.636L104.715,72.254a1.093,1.093,0,0,0-1.06-.283L100.014,73.1c-.071,0-.141-.035-.212-.035l-6.256-6.256a.217.217,0,0,1-.035-.212l.6-1.944,2.616,2.616a1.044,1.044,0,0,0,1.1.247l3.428-1.166a1.059,1.059,0,0,0,.672-.672l1.166-3.428a1.044,1.044,0,0,0-.247-1.1l-2.616-2.616,1.944-.6c.035,0,.141.035.212.035l6.256,6.256a.217.217,0,0,1,.035.212l-1.131,3.641a1.072,1.072,0,0,0,.283,1.06l12.689,12.689.919.884a2.133,2.133,0,0,1,.53,1.414A2.271,2.271,0,0,1,119.736,86.393Z" transform="translate(-59.049 -24.088)" fill="#0a4273"/>
    <path id="Trazado_215" data-name="Trazado 215" d="M146.326,112.153a.356.356,0,0,1-.106-.035,12.58,12.58,0,0,1-1.767-1.484h0l-10.215-10.215a1.075,1.075,0,0,0-1.52,1.52l10.215,10.215a11.011,11.011,0,0,0,2.333,1.909,2.439,2.439,0,0,0,1.131.247,1.587,1.587,0,0,0,.954-.283,1.069,1.069,0,0,0,.177-1.52A1.113,1.113,0,0,0,146.326,112.153Z" transform="translate(-85.603 -52.712)" fill="#0a4273"/>
    <path id="Trazado_216" data-name="Trazado 216" d="M93.693,118.4a1.155,1.155,0,0,0,.53-1.414l-.566-1.555a1.194,1.194,0,0,0-1.308-.742l-1.2.247a1.537,1.537,0,0,1-.212-.247l.353-1.166a1.171,1.171,0,0,0-.6-1.378l-1.484-.707a1.129,1.129,0,0,0-1.449.424l-.672,1.025h-.318l-.566-1.1a1.155,1.155,0,0,0-1.414-.53l-1.555.566a1.194,1.194,0,0,0-.742,1.308l.247,1.2a1.536,1.536,0,0,1-.247.212l-1.166-.353a1.171,1.171,0,0,0-1.378.6l-.707,1.485a1.129,1.129,0,0,0,.424,1.449l1.025.672v.318l-1.1.566a1.155,1.155,0,0,0-.53,1.414l.566,1.555a1.194,1.194,0,0,0,1.308.742l1.237-.212a1.538,1.538,0,0,1,.212.247L82.03,124.2a1.171,1.171,0,0,0,.6,1.378l1.484.707a1.129,1.129,0,0,0,1.449-.424l.672-1.025h.318l.566,1.1a1.146,1.146,0,0,0,1.025.6,1.271,1.271,0,0,0,.389-.071l1.555-.566a1.194,1.194,0,0,0,.742-1.308l-.247-1.2a1.538,1.538,0,0,1,.247-.212l1.166.353a1.171,1.171,0,0,0,1.378-.6l.707-1.484a1.129,1.129,0,0,0-.424-1.449l-1.025-.672V119Zm-7.034,1.767a1.308,1.308,0,1,1,1.308-1.308A1.3,1.3,0,0,1,86.66,120.168Z" transform="translate(-51.067 -59.878)" fill="#0a4273"/>
  </g>
</svg>
