<svg xmlns="http://www.w3.org/2000/svg" width="65" height="54.594" viewBox="0 0 65 54.594">
  <g id="service-3" transform="translate(0.012 -11.93)">
    <path id="Trazado_217" data-name="Trazado 217" d="M39.753,59.42,19.042,64.934,7.273,21.215c5.8-1.555,25.164-6.715,29.017-7.74l5.832,21.559a.694.694,0,1,0,1.343-.353L37.456,12.449a.714.714,0,0,0-.848-.495c-.247.071-25.129,6.68-30.36,8.094a.685.685,0,0,0-.495.848L6,21.851c-1.131.459-2.085.813-2.721,1.1a.717.717,0,0,0-.389.919L3.385,25.1c-.035,0-.071.035-.106.035-1.272.813-2.3,1.484-2.969,1.909A.691.691,0,0,0,.1,28L11.726,45.99l2.191,5.478.106.212,3.852,14.314a.681.681,0,0,0,.672.53.319.319,0,0,0,.177-.035L40.106,60.8a.712.712,0,0,0-.353-1.378ZM6.354,23.229l4.63,17.177L4.445,23.971Q5.241,23.653,6.354,23.229Zm-4.7,4.595c.6-.389,1.378-.884,2.262-1.449L9.04,39.239Z" transform="translate(0 0)" fill="#0a4273"/>
    <path id="Trazado_218" data-name="Trazado 218" d="M61.33,55.87a.706.706,0,0,0,.071-.53L57.8,41.945a.685.685,0,0,0-.848-.495c-.212.035-19.863,5.266-24,6.4a.714.714,0,0,0-.495.848l3.534,13.43a.76.76,0,0,0,.318.424.6.6,0,0,0,.353.106.319.319,0,0,0,.177-.035l24.069-6.432A.76.76,0,0,0,61.33,55.87Zm-24.175,5.2L33.974,48.978c4.665-1.237,19.333-5.16,22.655-6.044l3.252,12.052Z" transform="translate(-20.976 -19.069)" fill="#0a4273"/>
    <path id="Trazado_219" data-name="Trazado 219" d="M35.822,42.342A.319.319,0,0,0,36,42.307c4.418-1.166,15.975-4.241,20.746-5.514a.694.694,0,1,0-.353-1.343C51.62,36.723,40.028,39.8,35.645,40.964a.7.7,0,0,0,.177,1.378Z" transform="translate(-22.717 -15.19)" fill="#0a4273"/>
    <path id="Trazado_220" data-name="Trazado 220" d="M72.14,91.245a.685.685,0,0,0-.848-.495C66.52,92.023,54.963,95.1,50.545,96.264a.7.7,0,0,0,.177,1.378.319.319,0,0,0,.177-.035c4.418-1.166,15.975-4.241,20.746-5.513A.685.685,0,0,0,72.14,91.245Z" transform="translate(-32.351 -50.945)" fill="#0a4273"/>
    <path id="Trazado_221" data-name="Trazado 221" d="M73.161,100.545a.685.685,0,0,0-.848-.495c-5.513,1.484-15.41,4.1-19.368,5.16a.7.7,0,0,0,.177,1.378.319.319,0,0,0,.177-.035c3.994-1.06,13.854-3.676,19.368-5.16A.747.747,0,0,0,73.161,100.545Z" transform="translate(-33.903 -56.958)" fill="#0a4273"/>
    <path id="Trazado_222" data-name="Trazado 222" d="M64.234,116.25c-.106.035-9.118,2.474-13.289,3.6a.685.685,0,0,0-.495.848l2.474,9.118a.76.76,0,0,0,.318.424.6.6,0,0,0,.353.106.319.319,0,0,0,.177-.035l13.324-3.6a.76.76,0,0,0,.424-.318.706.706,0,0,0,.071-.53l-2.509-9.118A.685.685,0,0,0,64.234,116.25ZM54.091,128.8l-2.085-7.775c3.64-.99,9.9-2.686,11.946-3.252l2.156,7.775Z" transform="translate(-32.61 -67.433)" fill="#0a4273"/>
    <path id="Trazado_223" data-name="Trazado 223" d="M104.016,120.516l-1.1.318-2.085-7.775a2.286,2.286,0,0,0,.459-.141c.565-.141,1.166-.318,1.626-.424a.694.694,0,1,0-.353-1.343c-.424.106-1.025.283-1.59.424-.459.106-.884.247-1.131.318a.685.685,0,0,0-.495.848l2.474,9.118a.76.76,0,0,0,.318.424.6.6,0,0,0,.353.106.265.265,0,0,0,.177-.035l1.767-.495a.714.714,0,0,0,.495-.848A.76.76,0,0,0,104.016,120.516Z" transform="translate(-64.227 -64.135)" fill="#0a4273"/>
    <path id="Trazado_224" data-name="Trazado 224" d="M136.244,83.065h-6.821l5.443-4.241a.707.707,0,0,0,0-1.131l-5.019-3.676a.679.679,0,0,0-.424-.141h-.247a.035.035,0,0,0-.035.035h-.035a.035.035,0,0,0-.035.035h-.035l-.035.035-.035.035-.035.035-.035.035-.035.035a31050482457.2,31050482457.2,0,0,1-.071.071v.035a.035.035,0,0,1-.035.035l-4.029,8.659-3.994-8.659a.732.732,0,0,0-.459-.389.881.881,0,0,0-.6.106l-5.019,3.676a.687.687,0,0,0-.283.565.738.738,0,0,0,.283.565l5.443,4.241h-6.786a.709.709,0,0,0-.707.707v6.15a.709.709,0,0,0,.707.707h9.861a.709.709,0,0,0,.707-.707V84.443h1.8v5.443a.709.709,0,0,0,.707.707h9.861a.709.709,0,0,0,.707-.707v-6.15A.7.7,0,0,0,136.244,83.065Zm-9.083,0h-.884l3.428-7.387,3.6,2.615Zm-10.85-4.771,3.6-2.615,3.393,7.387h-.884ZM114.049,89.25V84.479H122.5V89.25Zm21.524,0h-8.482V84.479h8.447V89.25Z" transform="translate(-72.812 -40.044)" fill="#0a4273"/>
    <path id="Trazado_225" data-name="Trazado 225" d="M138.317,124.9h-8.73a.709.709,0,0,0-.707.707v8.129h-1.8v-8.129a.709.709,0,0,0-.707-.707h-8.164a.709.709,0,0,0-.707.707v8.836a.709.709,0,0,0,.707.707h20.075a.709.709,0,0,0,.707-.707v-8.836A.7.7,0,0,0,138.317,124.9ZM125.7,133.736h-6.751v-7.457H125.7Zm11.911,0h-7.351v-7.457h7.351Z" transform="translate(-75.98 -73.043)" fill="#0a4273"/>
    <path id="Trazado_226" data-name="Trazado 226" d="M129.545,27.362a.686.686,0,1,0,.778-1.131,6.683,6.683,0,0,1-3.146-5.514,6.566,6.566,0,0,1,2.615-5.125,10.287,10.287,0,0,1,12.511,0,6.565,6.565,0,0,1,2.615,5.125,6.448,6.448,0,0,1-2.615,5.089,10.125,10.125,0,0,1-6.256,2.121,9.673,9.673,0,0,1-1.767-.141.687.687,0,0,0-.884.283,8.918,8.918,0,0,1-1.838,2.085l.212-1.555a.695.695,0,1,0-1.378-.177l-.424,3.11a.708.708,0,0,0,.283.672.741.741,0,0,0,.389.141,1.032,1.032,0,0,0,.318-.071,10.12,10.12,0,0,0,3.322-3,14.308,14.308,0,0,0,1.767.141c5.655,0,10.285-3.852,10.285-8.588a7.922,7.922,0,0,0-3.146-6.185,11.475,11.475,0,0,0-7.139-2.439c-5.655,0-10.249,3.852-10.249,8.624A7.92,7.92,0,0,0,129.545,27.362Z" transform="translate(-81.345 -0.175)" fill="#0a4273"/>
    <path id="Trazado_227" data-name="Trazado 227" d="M142.3,38.6a1.7,1.7,0,1,0,1.7-1.7A1.72,1.72,0,0,0,142.3,38.6Z" transform="translate(-92.015 -16.145)" fill="#0a4273"/>
    <path id="Trazado_228" data-name="Trazado 228" d="M147.45,29.17a.685.685,0,0,0,.495.848,3.5,3.5,0,0,1,2.509,3.994.664.664,0,0,0,.6.778h.106a.719.719,0,0,0,.707-.6,4.912,4.912,0,0,0-3.5-5.514A.789.789,0,0,0,147.45,29.17Z" transform="translate(-95.327 -10.818)" fill="#0a4273"/>
    <path id="Trazado_229" data-name="Trazado 229" d="M154.539,30.579c.071,0,.106.035.177.035a.681.681,0,0,0,.672-.53,6.972,6.972,0,0,0,.212-1.7,7.314,7.314,0,0,0-6.008-7.21.7.7,0,1,0-.247,1.378,5.912,5.912,0,0,1,4.842,5.832,6.14,6.14,0,0,1-.177,1.378A.7.7,0,0,0,154.539,30.579Z" transform="translate(-96.196 -5.972)" fill="#0a4273"/>
  </g>
</svg>
