<svg xmlns="http://www.w3.org/2000/svg" width="60.342" height="65.061" viewBox="0 0 60.342 65.061">
  <g id="service-5" transform="translate(-9.084 -0.5)">
    <path id="Trazado_236" data-name="Trazado 236" d="M28.986,8.336c.071.035.106.106.177.106l.035.035,25.6,15.6a.944.944,0,0,0,.425.106.76.76,0,0,0,.674-.39.8.8,0,0,0-.284-1.1L36.467,11.03a2.868,2.868,0,0,1-.957-2.163,2.7,2.7,0,0,1,.106-.745L56.535,20.851a5.131,5.131,0,0,0-.284,1.276.819.819,0,0,0,.745.851h.071a.812.812,0,0,0,.815-.745,2.869,2.869,0,0,1,2.872-2.659,3.076,3.076,0,0,1,.993.177l3.439,5.637-6.24-.6a.8.8,0,0,0-.177,1.6L66.6,27.2h.071a.76.76,0,0,0,.674-.39.747.747,0,0,0,0-.851L63.023,18.9a1.108,1.108,0,0,0-.319-.39l-24.641-15a.636.636,0,0,0-.248-.177c-.035,0-.035-.035-.071-.035L33.95,1c-.035-.035-.106-.035-.142-.071S33.737.89,33.7.855A4.234,4.234,0,0,0,31.965.5,4.494,4.494,0,0,0,27.5,4.967,4.388,4.388,0,0,0,28.986,8.336Zm7.907-3.652A4.5,4.5,0,0,0,33.95,8.867a2.341,2.341,0,0,0,.035.5,2.941,2.941,0,0,1-.745-1.915,2.86,2.86,0,0,1,2.872-2.872A3.162,3.162,0,0,1,36.893,4.684ZM57.386,19.5,36.467,6.776a2.933,2.933,0,0,1,3.049-.532L59.23,18.263A4.716,4.716,0,0,0,57.386,19.5ZM31.929,2.1a2.889,2.889,0,0,1,1.1.213H33.1l1.454.886A4.462,4.462,0,0,0,31.61,7.414a3.854,3.854,0,0,0,.035.638l-1.6-.993a.035.035,0,0,1-.035-.035A2.836,2.836,0,0,1,31.929,2.1Z" transform="translate(-11.884)" fill="#07406e"/>
    <path id="Trazado_237" data-name="Trazado 237" d="M68.973,84.866a5.269,5.269,0,0,0-4.361.248c-.071-.035-.106-.071-.177-.071a6.935,6.935,0,0,0-4.326-.035c-.39-2.021-1.985-6.666-8.261-11.558-3.475-2.695-8.722-4.006-15.6-3.9a57.142,57.142,0,0,0-8.828.851c-4.113-3.971-6.878-3.9-7.2-3.9a.831.831,0,0,0-.745.638,13.786,13.786,0,0,0,.567,6.949c-1.383,1.1-5.106,4.326-5.992,8.119H9.9a.8.8,0,0,0-.78.709A15.078,15.078,0,0,0,13.379,94.3a.837.837,0,0,0,.567.248h1.418a8.4,8.4,0,0,0,.674,1.631,19.726,19.726,0,0,0,4.432,5.212l-1.383,5.531a.806.806,0,0,0,.106.638.878.878,0,0,0,.567.355c.248.035,5.815.709,8.864-3.51a57.828,57.828,0,0,0,15.529.461l.674,2.695a.83.83,0,0,0,.78.6h.142a7.094,7.094,0,0,0,2.766-1.241,7.658,7.658,0,0,0,3.12-5.354,19.235,19.235,0,0,0,3.475-2.695,18.031,18.031,0,0,0,5.07-9.325.814.814,0,1,0-1.6-.319A16.236,16.236,0,0,1,54.011,97.7a15.453,15.453,0,0,1-3.475,2.659.763.763,0,0,0-.425.638,6.071,6.071,0,0,1-3.9,5.389l-.638-2.588a.845.845,0,0,0-.886-.6,58.153,58.153,0,0,1-16.239-.461.762.762,0,0,0-.815.355c-1.808,2.836-5.106,3.226-6.7,3.262l1.276-5.07a.884.884,0,0,0-.248-.815A17.787,17.787,0,0,1,17.6,95.538a5.732,5.732,0,0,1-.709-1.844.767.767,0,0,0-.815-.745H14.337A13.8,13.8,0,0,1,10.72,83.8h4.006a.771.771,0,0,0,.78-.674c.6-4.219,5.921-8.084,5.992-8.119a.773.773,0,0,0,.248-.993,11.678,11.678,0,0,1-.78-5.85c1.135.248,3.191,1.205,5.637,3.652a.8.8,0,0,0,.745.213C27.491,72,43.3,68.8,50.891,74.69A22.558,22.558,0,0,1,57.663,82.6a10.306,10.306,0,0,1,1.028,3.439.794.794,0,0,0,1.1.709,7.375,7.375,0,0,1,2.943-.532,9.076,9.076,0,0,0-1.028.957,3.069,3.069,0,0,0-.674,2.517A2.83,2.83,0,0,0,62.308,91.6a3.083,3.083,0,0,0,3.4-.425c1.489-1.312.957-3.333.638-4.148a3.213,3.213,0,0,0-.39-.78,3.125,3.125,0,0,1,2.269-.035.813.813,0,0,0,1.1-.319A.735.735,0,0,0,68.973,84.866Zm-4.326,5.176a1.489,1.489,0,0,1-1.6.213,1.453,1.453,0,0,1-.461-.815,1.333,1.333,0,0,1,.319-1.17,7.165,7.165,0,0,1,1.56-1.276,1.859,1.859,0,0,1,.355.638C65.251,88.73,65.18,89.581,64.648,90.042Z" transform="translate(0 -42.599)" fill="#07406e"/>
    <path id="Trazado_238" data-name="Trazado 238" d="M40.1,104.7a1.6,1.6,0,1,0,1.6-1.6A1.612,1.612,0,0,0,40.1,104.7Z" transform="translate(-20.019 -66.223)" fill="#07406e"/>
  </g>
</svg>
