<svg xmlns="http://www.w3.org/2000/svg" width="65" height="53.305" viewBox="0 0 65 53.305">
  <g id="service-6" transform="translate(-2.1 -16.3)">
    <path id="Trazado_239" data-name="Trazado 239" d="M76.861,95.123A13.161,13.161,0,1,0,63.7,81.961,13.174,13.174,0,0,0,76.861,95.123Zm0-24.563a11.4,11.4,0,1,1-11.4,11.4A11.414,11.414,0,0,1,76.861,70.56Z" transform="translate(-39.017 -33.253)" fill="#0a4273"/>
    <path id="Trazado_240" data-name="Trazado 240" d="M55.6,76.831A16.131,16.131,0,1,0,71.731,60.7,16.131,16.131,0,0,0,55.6,76.831ZM71.731,62.46A14.371,14.371,0,1,1,57.36,76.831,14.394,14.394,0,0,1,71.731,62.46Z" transform="translate(-33.886 -28.122)" fill="#0a4273"/>
    <path id="Trazado_241" data-name="Trazado 241" d="M152.746,130.923a2.823,2.823,0,1,0-2.823,2.823A2.848,2.848,0,0,0,152.746,130.923Zm-2.823-1.063a1.063,1.063,0,1,1-1.063,1.063A1.064,1.064,0,0,1,149.923,129.86Z" transform="translate(-91.842 -70.813)" fill="#0a4273"/>
    <path id="Trazado_242" data-name="Trazado 242" d="M13.868,49.756v.587a.892.892,0,0,0,.88.88h.037a.892.892,0,0,0,.88-.88v-.587A10.9,10.9,0,0,1,25.746,39.491c.257,0,.513.037.807.037a.892.892,0,0,0,.88-.88v-.037a.892.892,0,0,0-.88-.88,6.214,6.214,0,0,0-.807.037,10.965,10.965,0,0,1-10.118-10.3V26.88a.892.892,0,0,0-.88-.88h-.037a.892.892,0,0,0-.88.88v.587A10.833,10.833,0,0,1,3.786,37.732c-.257,0-.513-.037-.807-.037a.892.892,0,0,0-.88.88v.037a.892.892,0,0,0,.88.88,6.215,6.215,0,0,0,.807-.037A10.96,10.96,0,0,1,13.868,49.756ZM7.709,38.611a12.645,12.645,0,0,0,7.039-7.039,12.536,12.536,0,0,0,7.039,7.039,12.536,12.536,0,0,0-7.039,7.039A12.645,12.645,0,0,0,7.709,38.611Z" transform="translate(0 -6.144)" fill="#0a4273"/>
    <path id="Trazado_243" data-name="Trazado 243" d="M53.528,22.129h.33a3.169,3.169,0,0,1,2.933,3.19v.147a.925.925,0,0,0,.22.623.913.913,0,0,0,.623.293h.037a.9.9,0,0,0,.88-.77.624.624,0,0,0,.037-.257,3.263,3.263,0,0,1,3.263-3.226.88.88,0,0,0,0-1.76,3.185,3.185,0,0,1-3.263-3.19.892.892,0,0,0-.88-.88h-.037a.892.892,0,0,0-.88.88,3.258,3.258,0,0,1-2.933,3.226h-.293a.892.892,0,0,0-.88.88v.037A.778.778,0,0,0,53.528,22.129Zm4.143.367a3.891,3.891,0,0,0-.623-.733,4.37,4.37,0,0,0-.66-.55,5.329,5.329,0,0,0,1.283-1.283,5.713,5.713,0,0,0,.587.733,3.285,3.285,0,0,0,.7.55A4.283,4.283,0,0,0,57.671,22.5Z" transform="translate(-32.035)" fill="#0a4273"/>
    <path id="Trazado_244" data-name="Trazado 244" d="M77.368,31.812H63.07L60.54,23.2a.869.869,0,0,0-.843-.623L41.587,22.5a.892.892,0,0,0-.88.88.876.876,0,0,0,.88.88l17.451.073,2.2,7.516H59.111l-1.063-3.593a.869.869,0,0,0-.843-.623L41.88,27.559a.9.9,0,0,0-.843.587l-1.32,3.739H37.224a.921.921,0,0,0-.587-.77.9.9,0,0,0-1.136.55l-.073.22h-2.97a.88.88,0,0,0,0,1.76H76.451V71.772H21.46l.073-30.209a.876.876,0,0,0-.88-.88.892.892,0,0,0-.88.88L19.7,72.652a.8.8,0,0,0,.257.623.859.859,0,0,0,.623.257H77.368a.892.892,0,0,0,.88-.88V32.692A.847.847,0,0,0,77.368,31.812Zm-35.745,0,.88-2.53,14.041.073.733,2.456Z" transform="translate(-11.148 -3.927)" fill="#0a4273"/>
  </g>
</svg>
